<?xml version="1.0" encoding="iso-8859-1"?>
<!-- Generator: Adobe Illustrator 19.0.0, SVG Export Plug-In . SVG Version: 6.00 Build 0)  -->
<svg version="1.1" id="Layer_1" xmlns="http://www.w3.org/2000/svg" xmlns:xlink="http://www.w3.org/1999/xlink" x="0px" y="0px"
	 viewBox="0 0 506.4 506.4" style="enable-background:new 0 0 506.4 506.4;" xml:space="preserve">
<circle style="fill:#DF5C4E;" cx="253.2" cy="253.2" r="249.2"/>
<path style="fill:#F4EFEF;" d="M349.2,331.6c0,12-9.6,21.6-21.6,21.6H174.8c-12,0-21.6-9.6-21.6-21.6V178.8c0-12,9.6-21.6,21.6-21.6
	h152.8c12,0,21.6,9.6,21.6,21.6V331.6z"/>
<path d="M253.2,506.4C113.6,506.4,0,392.8,0,253.2S113.6,0,253.2,0s253.2,113.6,253.2,253.2S392.8,506.4,253.2,506.4z M253.2,8
	C118,8,8,118,8,253.2s110,245.2,245.2,245.2s245.2-110,245.2-245.2S388.4,8,253.2,8z"/>
<path d="M323.6,357.2H170.8c-14,0-25.6-11.6-25.6-25.6V178.8c0-14,11.6-25.6,25.6-25.6h152.8c14,0,25.6,11.6,25.6,25.6v152.8
	C349.2,345.6,337.6,357.2,323.6,357.2z M170.8,161.2c-9.6,0-17.6,8-17.6,17.6v152.8c0,9.6,8,17.6,17.6,17.6h152.8
	c9.6,0,17.6-8,17.6-17.6V178.8c0-9.6-8-17.6-17.6-17.6H170.8z"/>
<g>
</g>
<g>
</g>
<g>
</g>
<g>
</g>
<g>
</g>
<g>
</g>
<g>
</g>
<g>
</g>
<g>
</g>
<g>
</g>
<g>
</g>
<g>
</g>
<g>
</g>
<g>
</g>
<g>
</g>
</svg>
